<svg version="1.1" id="Layer_1" xmlns="http://www.w3.org/2000/svg" xmlns:xlink="http://www.w3.org/1999/xlink" x="0px" y="0px"
	 width="100%" viewBox="0 0 496 496" enable-background="new 0 0 496 496" xml:space="preserve">
<path fill="#000000" opacity="1.000000" stroke="none" 
	d="
M260.568726,133.075577 
	C264.564941,134.935425 268.120850,137.831833 271.906677,133.229965 
	C272.725189,132.235016 274.445862,132.596436 275.489532,133.736664 
	C276.504547,134.845581 276.827759,136.600754 275.936371,137.413834 
	C271.651337,141.322449 274.765656,144.745712 276.085480,148.532547 
	C277.322205,152.081085 277.957947,155.498871 282.988983,155.143936 
	C284.622772,155.028656 285.975128,156.735306 285.742920,158.684433 
	C285.505219,160.680084 284.003845,161.505035 282.140778,161.341812 
	C278.821442,161.051010 277.362183,162.516281 276.879425,165.766342 
	C276.595154,167.680008 275.612091,169.559677 274.640717,171.284210 
	C273.368134,173.543625 272.920105,175.441589 275.045929,177.530304 
	C276.738831,179.193680 277.356903,181.374680 275.308502,183.236374 
	C273.284302,185.076050 271.554352,183.644775 270.136353,182.169327 
	C268.269806,180.227127 266.501190,180.451263 264.364319,181.739014 
	C262.672119,182.758774 260.789062,183.569138 258.887604,184.108948 
	C256.084198,184.904816 253.994644,185.935226 254.238358,189.445602 
	C254.378799,191.468521 253.263687,193.056030 250.999084,193.077774 
	C248.693558,193.099915 247.656937,191.445267 247.761581,189.455185 
	C247.941910,186.026581 246.125488,184.795868 243.152664,184.118759 
	C241.400375,183.719635 239.667892,182.908447 238.134109,181.950241 
	C235.747757,180.459412 233.702057,179.892303 231.563889,182.380890 
	C230.307037,183.843719 228.545212,184.817245 226.787750,183.152817 
	C225.015549,181.474426 225.276398,179.310806 226.878311,177.828491 
	C229.426315,175.470734 228.870834,173.384247 227.261169,170.866470 
	C226.292267,169.350922 225.496078,167.569458 225.203857,165.810837 
	C224.679321,162.654175 223.274750,161.059906 219.922455,161.347015 
	C217.813400,161.527634 216.267746,160.534744 216.234879,158.267670 
	C216.206451,156.309128 217.694244,154.911453 219.388504,155.017593 
	C223.897598,155.299988 224.724304,152.308350 225.758911,149.009140 
	C226.546265,146.498444 227.895935,144.164093 229.084549,141.555664 
	C228.620926,140.976852 228.177673,140.281754 227.599350,139.727631 
	C225.745560,137.951340 224.448318,135.868271 226.519501,133.688889 
	C228.508011,131.596527 230.595459,133.017288 232.133682,134.645355 
	C233.909760,136.525162 235.467072,136.121155 237.418640,134.975601 
	C239.121567,133.975983 241.013718,133.183182 242.922424,132.676041 
	C245.970230,131.866257 248.048050,130.619141 247.743439,126.942406 
	C247.565109,124.790077 248.936401,123.491859 251.147659,123.539009 
	C253.129135,123.581268 254.462494,124.918846 254.225006,126.742332 
	C253.601349,131.530807 256.875885,132.182816 260.568726,133.075577 
M243.696854,156.820709 
	C244.795380,160.359238 249.334534,162.132355 248.651474,166.668121 
	C248.521011,167.534470 249.696579,168.322678 250.788269,168.394882 
	C251.899246,168.468414 253.076752,167.790604 253.093323,166.895447 
	C253.164062,163.072906 255.936523,160.794724 257.747620,157.950058 
	C258.901245,156.138046 258.806641,154.189911 257.821533,152.266129 
	C256.130646,148.963959 253.405899,147.073074 249.784531,147.837906 
	C245.594986,148.722778 243.329575,151.633835 243.696854,156.820709 
z"/>
<path fill="#000000" opacity="1.000000" stroke="none" 
	d="
M316.236755,248.035019 
	C316.232819,250.858490 316.236359,253.190765 316.222351,255.522919 
	C316.180756,262.457397 316.170471,262.229431 309.275330,262.458984 
	C304.981415,262.601898 303.186829,261.318237 303.522949,256.821686 
	C303.857300,252.348953 303.593018,247.831451 303.590210,243.333588 
	C303.588470,240.563263 303.960846,238.183548 300.226624,236.630936 
	C297.464325,235.482407 298.114594,231.881973 300.529755,230.013428 
	C302.714874,228.322876 303.454712,226.436157 303.896881,223.789032 
	C305.363770,215.007568 314.764404,211.905319 324.582428,216.738586 
	C325.625732,222.923264 321.064331,224.470932 314.866882,225.739288 
	C320.077332,228.589691 323.910156,227.531708 327.513214,227.604782 
	C337.711823,227.811661 335.431488,227.012238 338.272186,235.582520 
	C339.401428,238.989380 340.483704,242.411819 341.859222,246.668335 
	C344.306091,242.348663 345.245850,238.473938 346.008240,234.672958 
	C347.121155,229.124695 349.905579,226.575348 355.647705,227.642746 
	C357.086487,227.910172 358.651672,227.398376 359.929230,228.235245 
	C360.612366,229.050262 360.486298,229.909149 360.203217,230.669022 
	C355.729584,242.677292 351.419922,254.752075 346.657745,266.645508 
	C343.520111,274.481781 337.342194,277.951782 329.826752,277.306000 
	C326.539337,277.023529 325.534363,275.302063 325.704590,272.359741 
	C325.851379,269.823181 324.987640,267.074097 329.242706,266.618652 
	C335.205994,265.980286 336.682831,263.164307 334.511017,257.712860 
	C331.078247,249.096298 327.550323,240.517624 323.652588,231.797455 
	C323.740509,235.464432 322.765320,237.766586 318.667389,237.442596 
	C316.729279,237.289383 316.281982,238.908188 316.265961,240.547852 
	C316.243195,242.879700 316.244934,245.211777 316.236755,248.035019 
z"/>
<path fill="#000000" opacity="1.000000" stroke="none" 
	d="
M243.304962,228.015656 
	C254.338501,227.221237 254.339722,227.221237 254.345001,237.691879 
	C254.348099,243.844772 254.423935,249.999191 254.303192,256.149719 
	C254.263641,258.164001 255.346680,261.069458 252.826324,261.902893 
	C250.125763,262.795898 246.956955,263.275909 244.345764,261.018005 
	C243.862946,260.600494 243.384262,260.178223 242.973389,259.819092 
	C240.817856,260.801727 238.936874,261.906555 236.908737,262.540863 
	C228.273819,265.241394 220.960281,260.097290 220.710938,251.067734 
	C220.531982,244.587357 220.804367,238.094788 220.641068,231.613556 
	C220.526047,227.048706 223.645889,227.567947 226.400116,227.709991 
	C229.241272,227.856506 233.243851,226.296753 233.246674,231.600357 
	C233.249329,236.589020 233.263107,241.577988 233.324936,246.566162 
	C233.358673,249.289078 233.419434,252.396454 237.069305,252.460358 
	C240.499710,252.520432 241.333145,249.426590 241.509811,246.803558 
	C241.844482,241.835175 241.665939,236.833115 241.737183,231.845551 
	C241.755890,230.534531 241.649597,229.145416 243.304962,228.015656 
z"/>
<path fill="#000000" opacity="1.000000" stroke="none" 
	d="
M213.060623,260.691467 
	C208.971146,263.626740 205.456970,262.685394 202.380508,259.674438 
	C199.927277,260.695404 197.716354,261.870331 195.362213,262.547119 
	C188.540955,264.508179 182.719894,261.544678 181.059402,255.467712 
	C179.126129,248.392441 182.252014,242.954254 189.539062,241.150085 
	C192.899307,240.318130 196.374329,239.949722 200.722961,239.214661 
	C198.229675,235.350159 195.367615,236.369858 192.459839,237.160858 
	C190.221786,237.769699 187.885422,239.449646 186.160797,235.884079 
	C183.752335,230.904709 184.084778,229.567841 189.512024,228.194077 
	C192.235550,227.504715 195.070648,227.049530 197.874924,226.922745 
	C208.291138,226.451797 213.336304,231.340530 213.341110,241.758713 
	C213.343948,247.918335 213.243683,254.078003 213.060623,260.691467 
M195.769730,248.171082 
	C194.036270,249.166992 192.712021,250.509247 194.042221,252.514618 
	C195.139114,254.168274 196.935074,253.834106 198.490570,253.046570 
	C200.123199,252.219986 201.041885,250.767838 200.501297,248.976593 
	C199.806931,246.675842 198.002243,247.440231 195.769730,248.171082 
z"/>
<path fill="#000000" opacity="1.000000" stroke="none" 
	d="
M145.954956,241.898193 
	C144.739334,237.068939 141.737396,233.179337 141.648514,228.294708 
	C144.912094,227.155579 148.083633,227.855881 151.196472,227.699371 
	C153.903259,227.563263 154.425949,229.641357 154.999084,231.530243 
	C156.515900,236.529221 157.934784,241.557907 160.331146,246.512390 
	C161.666229,242.290710 163.455139,238.149384 164.220383,233.826843 
	C165.156418,228.539795 167.978104,226.927231 172.881241,227.640137 
	C174.650787,227.897430 176.550385,227.266647 178.814072,228.838364 
	C176.928680,233.911118 175.001740,239.158951 173.027374,244.388885 
	C171.266800,249.052490 169.162720,253.609543 167.742920,258.372406 
	C166.218414,263.486572 162.307190,262.100800 158.839035,262.407410 
	C155.396194,262.711792 153.234909,261.579651 152.066620,258.123047 
	C150.258682,252.773956 148.100540,247.543213 145.954956,241.898193 
z"/>
<path fill="#000000" opacity="1.000000" stroke="none" 
	d="
M261.716736,239.000183 
	C261.710724,232.005554 261.815613,225.508408 261.667145,219.017044 
	C261.547882,213.802444 265.234558,214.808548 268.244751,214.775085 
	C271.145294,214.742813 274.435883,213.976746 274.380737,218.880783 
	C274.232849,232.034973 274.239227,245.192841 274.378052,258.347198 
	C274.420380,262.358246 272.061646,262.696411 269.196625,262.347046 
	C266.300842,261.993866 261.874420,264.130432 261.780212,258.483856 
	C261.674652,252.157379 261.731842,245.828186 261.716736,239.000183 
z"/>
<path fill="#000000" opacity="1.000000" stroke="none" 
	d="
M281.683655,257.841614 
	C281.674805,249.200806 281.996490,241.025635 281.568390,232.889893 
	C281.252533,226.886963 285.061890,227.744202 288.677094,227.529572 
	C292.389313,227.309219 294.585083,228.043427 294.407379,232.615829 
	C294.084290,240.927963 294.283447,249.261993 294.339600,257.586395 
	C294.358368,260.370453 293.976105,262.960846 290.415161,262.292023 
	C287.270599,261.701385 282.074707,265.090088 281.683655,257.841614 
z"/>
<path fill="#000000" opacity="1.000000" stroke="none" 
	d="
M280.283142,291.844391 
	C280.107391,293.934998 279.628754,295.374878 277.577454,294.995667 
	C275.902191,294.686005 275.925720,293.194763 275.733154,291.855927 
	C275.510651,290.309113 276.362518,288.501526 274.563477,287.080688 
	C272.384613,288.418732 273.525146,290.653229 273.121368,292.389404 
	C272.802612,293.759888 272.504822,295.062469 270.755341,295.065125 
	C268.861664,295.067993 268.875519,293.624573 268.680359,292.278748 
	C268.429230,290.546967 269.283234,288.588226 267.507751,286.888184 
	C264.782288,287.836487 265.597321,290.248413 265.355713,292.175751 
	C265.192047,293.481720 265.274261,295.084076 263.332001,294.950653 
	C261.799408,294.845367 261.645782,293.471283 261.671967,292.316833 
	C261.739075,289.356750 261.143768,286.355469 262.023956,283.413025 
	C266.638672,281.976807 271.294067,283.034943 275.819397,283.007629 
	C281.091522,282.975708 280.120819,287.842682 280.283142,291.844391 
z"/>
<path fill="#000000" opacity="1.000000" stroke="none" 
	d="
M312.169678,292.555389 
	C312.975006,295.424072 311.036987,295.533539 309.420166,295.594208 
	C307.653381,295.660461 306.093201,294.931000 305.706696,292.978149 
	C305.298706,290.916809 305.093567,288.815277 304.782928,286.611481 
	C300.505585,286.255157 299.386749,288.563721 299.336700,292.021973 
	C299.318237,293.300934 299.431152,294.955078 297.532532,294.960449 
	C295.644379,294.965790 295.721558,293.315521 295.688965,292.032532 
	C295.618073,289.241028 295.667084,286.446472 295.667084,283.504242 
	C299.742432,282.358612 303.928986,283.747070 307.588409,281.145050 
	C308.689850,280.361847 311.117249,282.750549 312.700104,284.517456 
	C310.621429,287.011475 306.310577,289.396576 312.169678,292.555389 
z"/>
<path fill="#000000" opacity="1.000000" stroke="none" 
	d="
M214.234116,282.813293 
	C219.912415,283.562408 221.989395,285.992279 221.306595,290.563660 
	C220.760468,294.220062 217.860779,296.100677 213.959824,295.336517 
	C211.120972,294.780457 209.568268,292.914337 209.335739,290.185852 
	C209.043900,286.761475 210.059845,283.908173 214.234116,282.813293 
z"/>
<path fill="#000000" opacity="1.000000" stroke="none" 
	d="
M282.690491,215.947769 
	C288.389435,212.790955 293.166107,213.646378 294.284302,217.754028 
	C294.926483,220.113113 294.825409,222.523178 292.530518,224.033600 
	C289.793793,225.834854 286.768768,225.894897 284.013794,224.201172 
	C280.817169,222.235977 281.228699,219.262405 282.690491,215.947769 
z"/>
<path fill="#000000" opacity="1.000000" stroke="none" 
	d="
M241.833557,292.033600 
	C243.331238,293.230164 243.128128,294.438416 241.839676,294.895386 
	C239.312241,295.791809 236.488937,296.168579 234.300613,294.324158 
	C231.620712,292.065430 231.146667,289.034454 232.710922,285.806030 
	C234.100876,282.937347 236.596786,282.289795 239.377274,282.918030 
	C243.017151,283.740479 243.718063,286.416718 243.320145,289.535187 
	C241.385223,290.952881 239.225693,289.997650 237.293701,290.805054 
	C238.543747,292.522705 240.165085,291.581879 241.833557,292.033600 
z"/>
<path fill="#000000" opacity="1.000000" stroke="none" 
	d="
M284.356689,283.341125 
	C291.539673,282.249756 295.453491,286.825806 293.060913,293.260223 
	C291.697571,296.926666 288.168762,294.697998 285.684601,295.255127 
	C283.742798,295.690582 282.156494,294.421234 281.834564,292.277588 
	C281.439178,289.644958 282.890259,288.290375 285.306488,287.725555 
	C285.929871,287.579803 286.540771,287.380615 287.307495,287.163483 
	C286.408936,285.605499 281.991760,287.402802 284.356689,283.341125 
z"/>
<path fill="#000000" opacity="1.000000" stroke="none" 
	d="
M256.446625,295.355896 
	C255.572617,295.421143 255.065979,295.517517 254.580017,295.454498 
	C252.889893,295.235229 250.389648,295.907074 250.432541,293.183075 
	C250.473419,290.586548 253.210648,292.457458 254.622467,291.225861 
	C252.204529,289.888519 249.629959,288.543976 250.806122,285.213654 
	C251.614532,282.924561 253.667542,282.703400 255.737961,282.730743 
	C257.084900,282.748505 258.622528,282.759460 259.131409,284.243134 
	C259.906036,286.501556 257.210693,285.874634 256.507233,286.966003 
	C261.336395,291.228546 261.374054,292.376038 256.446625,295.355896 
z"/>
<path fill="#000000" opacity="1.000000" stroke="none" 
	d="
M192.029358,290.297058 
	C189.627716,288.827972 188.887619,286.899536 190.043091,284.672668 
	C191.113235,282.610229 193.265427,282.655731 195.285736,282.756470 
	C196.484512,282.816193 197.774643,283.053162 198.118118,284.324860 
	C198.650391,286.295532 196.666260,286.078369 195.571548,286.756653 
	C196.940201,288.613403 200.027008,289.572113 198.683029,292.767365 
	C197.766541,294.946289 195.952927,295.482544 193.855469,295.487915 
	C191.901154,295.492920 189.786987,295.662659 189.684814,292.906067 
	C189.347839,290.631165 193.532257,293.496552 192.029358,290.297058 
z"/>
<path fill="#000000" opacity="1.000000" stroke="none" 
	d="
M207.595306,294.868042 
	C202.890869,296.505005 201.132263,294.343842 200.848343,290.227295 
	C200.791214,289.398926 201.007217,288.461487 200.690506,287.757294 
	C199.487076,285.081573 199.867203,282.692230 202.415451,281.339355 
	C205.259857,279.829254 205.960709,283.498505 209.282181,283.577759 
	C205.016739,287.298828 203.840775,290.325470 208.174377,293.271729 
	C208.316544,293.368378 207.976776,294.173950 207.595306,294.868042 
z"/>
<path fill="#000000" opacity="1.000000" stroke="none" 
	d="
M229.811676,282.867462 
	C232.214661,283.872864 231.796005,285.683228 230.475800,286.318817 
	C227.486389,287.758026 227.219955,290.118011 227.221954,292.855469 
	C227.222900,294.139343 226.633240,295.086273 225.151108,295.051544 
	C223.670670,295.016846 223.127792,293.938293 223.070816,292.750641 
	C222.952774,290.290833 222.783447,287.791321 223.081177,285.362793 
	C223.628235,280.900574 227.656433,284.575104 229.811676,282.867462 
z"/>
</svg>