<?xml version="1.0" encoding="UTF-8"?>
<svg id="Layer_1" data-name="Layer 1" xmlns="http://www.w3.org/2000/svg" viewBox="0 0 992 303.34">
  <defs>
    <style>
      .cls-1 {
        letter-spacing: -.04em;
      }

      .cls-2 {
        letter-spacing: 0em;
      }

      .cls-3 {
        opacity: .8;
      }

      .cls-3, .cls-4 {
        stroke-width: 0px;
      }

      .cls-3, .cls-4, .cls-5 {
        fill: #fff;
      }

      .cls-6 {
        letter-spacing: 0em;
      }

      .cls-7 {
        opacity: .65;
      }

      .cls-8 {
        letter-spacing: 0em;
      }

      .cls-9 {
        letter-spacing: -.02em;
      }

      .cls-10 {
        opacity: .45;
      }

      .cls-11 {
        letter-spacing: -.02em;
      }

      .cls-12 {
        letter-spacing: -.11em;
      }

      .cls-13 {
        letter-spacing: -.01em;
      }

      .cls-14 {
        letter-spacing: -.03em;
      }

      .cls-5 {
        font-family: Lato-Regular, Lato;
        font-size: 31.7px;
      }
    </style>
  </defs>
  <g>
    <path class="cls-4" d="M527.37,41.66l-42.01,104.03h-17.48l-42.01-104.03h15.54c1.68,0,3.05.41,4.1,1.22,1.05.82,1.85,1.87,2.38,3.17l24.53,63.45c.81,2.06,1.59,4.33,2.34,6.8.74,2.47,1.45,5.05,2.12,7.73.58-2.69,1.2-5.26,1.87-7.73.67-2.47,1.41-4.74,2.23-6.8l24.39-63.45c.38-1.1,1.14-2.11,2.27-3.02,1.13-.91,2.51-1.37,4.14-1.37h15.61Z"/>
    <path class="cls-4" d="M557.59,57.06v28.85h36.4v14.89h-36.4v29.42h46.19v15.47h-65.61V41.66h65.61v15.4h-46.19Z"/>
    <path class="cls-4" d="M681.83,129.72v15.97h-60.94V41.66h19.35v88.06h41.58Z"/>
    <path class="cls-4" d="M756.58,129.72v15.97h-60.94V41.66h19.35v88.06h41.58Z"/>
    <path class="cls-4" d="M809.39,130.08c3.74,0,7.09-.62,10.04-1.87,2.95-1.25,5.43-3,7.45-5.25,2.01-2.25,3.56-4.99,4.64-8.2,1.08-3.21,1.62-6.81,1.62-10.79v-62.3h19.35v62.3c0,6.19-1,11.91-2.99,17.16-1.99,5.25-4.85,9.78-8.56,13.6-3.72,3.81-8.24,6.79-13.56,8.92-5.32,2.13-11.32,3.2-17.99,3.2s-12.73-1.07-18.06-3.2c-5.32-2.13-9.85-5.11-13.56-8.92-3.72-3.81-6.57-8.35-8.56-13.6-1.99-5.25-2.99-10.97-2.99-17.16v-62.3h19.35v62.23c0,3.98.54,7.58,1.62,10.79,1.08,3.21,2.64,5.96,4.68,8.24,2.04,2.28,4.53,4.04,7.48,5.29,2.95,1.25,6.29,1.87,10.04,1.87Z"/>
    <path class="cls-4" d="M987.16,41.66v104.03h-17.05v-67.19c0-2.69.14-5.59.43-8.71l-31.44,59.07c-1.49,2.83-3.77,4.24-6.83,4.24h-2.73c-3.07,0-5.35-1.41-6.83-4.24l-31.8-59.28c.14,1.58.26,3.14.36,4.68.1,1.54.14,2.95.14,4.24v67.19h-17.05V41.66h14.6c.86,0,1.61.02,2.23.07.62.05,1.19.17,1.69.36.5.19.96.5,1.37.94.41.43.8,1.01,1.19,1.73l31.15,57.77c.82,1.54,1.57,3.12,2.27,4.75.69,1.63,1.38,3.31,2.05,5.04.67-1.77,1.37-3.49,2.09-5.14.72-1.65,1.49-3.25,2.3-4.78l30.72-57.63c.38-.72.79-1.29,1.22-1.73.43-.43.9-.74,1.4-.94.5-.19,1.07-.31,1.69-.36.62-.05,1.37-.07,2.23-.07h14.6Z"/>
  </g>
  <g>
    <path class="cls-4" d="M600.68,180.66v58.91h-6.99v-43.29c0-.58.02-1.19.06-1.85.04-.66.09-1.33.14-2.01l-20.23,36.83c-.63,1.23-1.59,1.85-2.88,1.85h-1.15c-1.29,0-2.25-.62-2.88-1.85l-20.64-37c.16,1.45.25,2.8.25,4.03v43.29h-6.99v-58.91h5.88c.71,0,1.26.07,1.64.21.38.14.75.52,1.11,1.15l20.35,36.26c.33.66.65,1.34.97,2.06s.61,1.44.88,2.18c.27-.74.56-1.47.86-2.2.3-.73.63-1.42.99-2.08l19.98-36.22c.33-.63.69-1.01,1.09-1.15.4-.14.95-.21,1.67-.21h5.88Z"/>
    <path class="cls-4" d="M670.15,210.14c0,4.41-.7,8.46-2.1,12.15-1.4,3.69-3.37,6.86-5.92,9.52s-5.61,4.72-9.19,6.19c-3.58,1.47-7.53,2.2-11.86,2.2s-8.28-.73-11.84-2.2c-3.56-1.47-6.62-3.53-9.17-6.19s-4.52-5.83-5.92-9.52c-1.4-3.69-2.1-7.74-2.1-12.15s.7-8.46,2.1-12.15c1.4-3.69,3.37-6.87,5.92-9.54,2.55-2.67,5.6-4.75,9.17-6.23,3.56-1.48,7.51-2.22,11.84-2.22s8.28.74,11.86,2.22c3.58,1.48,6.64,3.56,9.19,6.23,2.55,2.67,4.52,5.85,5.92,9.54,1.4,3.69,2.1,7.74,2.1,12.15ZM661.97,210.14c0-3.62-.49-6.87-1.48-9.74-.99-2.88-2.38-5.31-4.19-7.3-1.81-1.99-4-3.51-6.58-4.58-2.58-1.07-5.45-1.6-8.63-1.6s-6.02.53-8.59,1.6c-2.58,1.07-4.78,2.6-6.6,4.58-1.82,1.99-3.23,4.42-4.21,7.3-.99,2.88-1.48,6.12-1.48,9.74s.49,6.86,1.48,9.72c.99,2.86,2.39,5.29,4.21,7.28,1.82,1.99,4.02,3.51,6.6,4.56,2.58,1.06,5.44,1.58,8.59,1.58s6.06-.53,8.63-1.58c2.58-1.05,4.77-2.58,6.58-4.56,1.81-1.99,3.21-4.41,4.19-7.28.99-2.86,1.48-6.1,1.48-9.72Z"/>
    <path class="cls-4" d="M725.08,239.57h-7.07c-1.45,0-2.52-.56-3.21-1.69l-15.29-21.05c-.47-.66-.97-1.13-1.5-1.42-.54-.29-1.36-.43-2.49-.43h-6.04v24.58h-7.93v-58.91h16.65c3.73,0,6.95.38,9.66,1.13,2.71.75,4.95,1.84,6.72,3.27,1.77,1.43,3.08,3.15,3.93,5.16.85,2.01,1.27,4.27,1.27,6.76,0,2.08-.33,4.03-.99,5.84-.66,1.81-1.61,3.43-2.86,4.87-1.25,1.44-2.77,2.67-4.56,3.68-1.79,1.01-3.83,1.78-6.1,2.3,1.01.58,1.89,1.41,2.63,2.51l17.18,23.39ZM697.86,209.19c2.3,0,4.34-.28,6.11-.84,1.77-.56,3.25-1.36,4.44-2.38,1.19-1.03,2.09-2.25,2.69-3.68.6-1.42.9-3,.9-4.73,0-3.51-1.15-6.15-3.45-7.93-2.3-1.78-5.75-2.67-10.36-2.67h-8.72v22.24h8.39Z"/>
    <path class="cls-4" d="M770.96,187.36h-19.08v52.21h-7.93v-52.21h-19.12v-6.7h46.13v6.7Z"/>
    <path class="cls-4" d="M824.89,211.25v22.61c-2.96,2.14-6.12,3.73-9.48,4.79s-7.04,1.58-11.04,1.58c-4.74,0-9.02-.73-12.83-2.2-3.81-1.47-7.06-3.52-9.76-6.17-2.7-2.64-4.78-5.82-6.23-9.52-1.45-3.7-2.18-7.77-2.18-12.21s.71-8.59,2.12-12.29c1.41-3.7,3.42-6.87,6.02-9.52,2.6-2.64,5.77-4.69,9.5-6.15,3.73-1.45,7.89-2.18,12.5-2.18,2.33,0,4.5.17,6.5.51,2,.34,3.85.84,5.55,1.48,1.7.64,3.27,1.43,4.73,2.34,1.45.92,2.81,1.95,4.07,3.1l-2.26,3.62c-.36.55-.82.9-1.38,1.05-.56.15-1.19.02-1.87-.39-.66-.38-1.41-.85-2.26-1.4-.85-.55-1.88-1.08-3.1-1.58-1.22-.51-2.66-.94-4.32-1.29-1.66-.36-3.62-.53-5.9-.53-3.32,0-6.32.54-9,1.62-2.69,1.08-4.97,2.63-6.87,4.65-1.89,2.01-3.34,4.45-4.36,7.32-1.01,2.86-1.52,6.08-1.52,9.64s.53,7.01,1.58,9.93c1.05,2.92,2.56,5.4,4.52,7.44,1.96,2.04,4.34,3.6,7.13,4.67,2.79,1.07,5.93,1.6,9.41,1.6,2.74,0,5.17-.31,7.3-.92,2.12-.62,4.2-1.47,6.23-2.57v-12.95h-9.17c-.52,0-.94-.15-1.25-.45-.32-.3-.47-.67-.47-1.11v-4.52h18.09Z"/>
    <path class="cls-4" d="M884.5,239.57h-6.17c-.71,0-1.29-.18-1.73-.53s-.77-.81-.99-1.36l-5.51-14.22h-26.43l-5.51,14.22c-.16.49-.48.93-.95,1.32s-1.04.58-1.73.58h-6.17l23.56-58.91h8.06l23.56,58.91ZM867.9,217.7l-9.25-23.97c-.27-.71-.56-1.54-.86-2.49-.3-.95-.59-1.95-.86-3.02-.58,2.22-1.17,4.07-1.77,5.55l-9.25,23.93h21.99Z"/>
    <path class="cls-4" d="M938.6,211.25v22.61c-2.96,2.14-6.12,3.73-9.48,4.79s-7.04,1.58-11.04,1.58c-4.74,0-9.02-.73-12.83-2.2-3.81-1.47-7.06-3.52-9.76-6.17-2.7-2.64-4.78-5.82-6.23-9.52-1.45-3.7-2.18-7.77-2.18-12.21s.71-8.59,2.12-12.29c1.41-3.7,3.42-6.87,6.02-9.52,2.6-2.64,5.77-4.69,9.5-6.15,3.73-1.45,7.89-2.18,12.5-2.18,2.33,0,4.5.17,6.5.51,2,.34,3.85.84,5.55,1.48,1.7.64,3.27,1.43,4.73,2.34,1.45.92,2.81,1.95,4.07,3.1l-2.26,3.62c-.36.55-.82.9-1.38,1.05-.56.15-1.19.02-1.87-.39-.66-.38-1.41-.85-2.26-1.4-.85-.55-1.88-1.08-3.1-1.58-1.22-.51-2.66-.94-4.32-1.29-1.66-.36-3.62-.53-5.9-.53-3.32,0-6.32.54-9,1.62-2.69,1.08-4.97,2.63-6.87,4.65-1.89,2.01-3.34,4.45-4.36,7.32-1.01,2.86-1.52,6.08-1.52,9.64s.53,7.01,1.58,9.93c1.05,2.92,2.56,5.4,4.52,7.44,1.96,2.04,4.34,3.6,7.13,4.67,2.79,1.07,5.93,1.6,9.41,1.6,2.74,0,5.17-.31,7.3-.92,2.12-.62,4.2-1.47,6.23-2.57v-12.95h-9.17c-.52,0-.94-.15-1.25-.45-.32-.3-.47-.67-.47-1.11v-4.52h18.09Z"/>
    <path class="cls-4" d="M987.16,233.08l-.04,6.5h-36.3v-58.91h36.3v6.5h-28.32v19.57h22.94v6.25h-22.94v20.1h28.37Z"/>
  </g>
  <g class="cls-10">
    <path class="cls-4" d="M189.87,177.93S122.29,30.51,121.5,28.79c-11.1-24.23-29.72-24.43-35.6-24.43H4.8l109.91,221.33,75.16-47.76Z"/>
  </g>
  <g class="cls-7">
    <path class="cls-4" d="M310.76,4.37c-11.86,0-26.32,0-40.02,27.36l-60.63,133.34,147.74-93.89,31.48-66.82h-78.57Z"/>
  </g>
  <path class="cls-3" d="M138.09,272.78h0c.62,1.35,1.26,2.6,1.93,3.8.2.37.41.73.62,1.08.49.84.99,1.65,1.5,2.42.22.33.43.67.65.98.66.94,1.32,1.83,2,2.67.31.38.63.73.94,1.09.39.45.79.89,1.19,1.31.4.42.8.82,1.2,1.21.28.27.56.52.85.77,1.03.93,2.07,1.78,3.12,2.52h0c8.88,6.34,17.84,6.37,21.6,6.37h70.33l100.89-198.33L121.98,240.33l16.11,32.44Z"/>
  <text class="cls-5" transform="translate(581.64 290.49)"><tspan class="cls-6" x="0" y="0">O</tspan><tspan x="25.14" y="0">u</tspan><tspan class="cls-9" x="42.81" y="0">r</tspan><tspan x="53.68" y="0" xml:space="preserve"> Experts.</tspan><tspan class="cls-1" x="174.51" y="0"> </tspan><tspan class="cls-12" x="181.39" y="0">Y</tspan><tspan x="197.7" y="0">ou</tspan><tspan class="cls-11" x="233.34" y="0">r</tspan><tspan class="cls-14" x="244.22" y="0"> </tspan><tspan class="cls-13" x="251.27" y="0">A</tspan><tspan x="272.38" y="0">d</tspan><tspan class="cls-13" x="290.13" y="0">v</tspan><tspan x="306.14" y="0">a</tspan><tspan class="cls-2" x="321.9" y="0">n</tspan><tspan x="339.36" y="0">ta</tspan><tspan class="cls-8" x="366.48" y="0">g</tspan><tspan x="382.71" y="0">e.</tspan></text>
</svg>