<?xml version="1.0" encoding="utf-8"?>
<!-- Generator: Adobe Illustrator 28.3.0, SVG Export Plug-In . SVG Version: 6.00 Build 0)  -->
<svg version="1.1" id="Layer_1" xmlns="http://www.w3.org/2000/svg" xmlns:xlink="http://www.w3.org/1999/xlink" x="0px" y="0px"
	 viewBox="0 0 992 303.3" style="enable-background:new 0 0 992 303.3;" xml:space="preserve">
<style type="text/css">
	.st0{fill:#79909B;}
	.st1{fill:#0B354A;}
	.st2{font-family:'Lato-Regular';}
	.st3{font-size:31.7px;}
	.st4{letter-spacing:-1;}
	.st5{letter-spacing:-3;}
</style>
<g>
	<path class="st0" d="M527.4,42.7l-42,104h-17.5l-42-104h15.5c1.7,0,3,0.4,4.1,1.2c1,0.8,1.9,1.9,2.4,3.2l24.5,63.5
		c0.8,2.1,1.6,4.3,2.3,6.8c0.7,2.5,1.5,5.1,2.1,7.7c0.6-2.7,1.2-5.3,1.9-7.7c0.7-2.5,1.4-4.7,2.2-6.8L505.4,47
		c0.4-1.1,1.1-2.1,2.3-3c1.1-0.9,2.5-1.4,4.1-1.4H527.4L527.4,42.7z"/>
	<path class="st0" d="M557.6,58.1v28.9H594v14.9h-36.4v29.4h46.2v15.5h-65.6v-104h65.6v15.4C603.8,58.1,557.6,58.1,557.6,58.1z"/>
	<path class="st0" d="M681.8,130.7v16h-60.9v-104h19.3v88.1H681.8L681.8,130.7z"/>
	<path class="st0" d="M756.6,130.7v16h-60.9v-104H715v88.1H756.6L756.6,130.7z"/>
	<path class="st0" d="M809.4,131.1c3.7,0,7.1-0.6,10-1.9c3-1.2,5.4-3,7.5-5.2c2-2.2,3.6-5,4.6-8.2c1.1-3.2,1.6-6.8,1.6-10.8V42.7
		h19.3V105c0,6.2-1,11.9-3,17.2s-4.8,9.8-8.6,13.6c-3.7,3.8-8.2,6.8-13.6,8.9s-11.3,3.2-18,3.2s-12.7-1.1-18.1-3.2
		c-5.3-2.1-9.8-5.1-13.6-8.9c-3.7-3.8-6.6-8.4-8.6-13.6s-3-11-3-17.2V42.7h19.3v62.2c0,4,0.5,7.6,1.6,10.8c1.1,3.2,2.6,6,4.7,8.2
		s4.5,4,7.5,5.3C802.3,130.5,805.6,131.1,809.4,131.1L809.4,131.1z"/>
	<path class="st0" d="M987.2,42.7v104h-17V79.5c0-2.7,0.1-5.6,0.4-8.7l-31.4,59.1c-1.5,2.8-3.8,4.2-6.8,4.2h-2.7
		c-3.1,0-5.3-1.4-6.8-4.2l-31.8-59.3c0.1,1.6,0.3,3.1,0.4,4.7c0.1,1.5,0.1,2.9,0.1,4.2v67.2h-17v-104H889c0.9,0,1.6,0,2.2,0.1
		s1.2,0.2,1.7,0.4c0.5,0.2,1,0.5,1.4,0.9c0.4,0.4,0.8,1,1.2,1.7l31.2,57.8c0.8,1.5,1.6,3.1,2.3,4.8c0.7,1.6,1.4,3.3,2,5
		c0.7-1.8,1.4-3.5,2.1-5.1c0.7-1.6,1.5-3.2,2.3-4.8L966,45.8c0.4-0.7,0.8-1.3,1.2-1.7c0.4-0.4,0.9-0.7,1.4-0.9
		c0.5-0.2,1.1-0.3,1.7-0.4s1.4-0.1,2.2-0.1L987.2,42.7L987.2,42.7z"/>
</g>
<g>
	<path class="st0" d="M600.7,181.7v58.9h-7v-43.3c0-0.6,0-1.2,0.1-1.9s0.1-1.3,0.1-2l-20.2,36.8c-0.6,1.2-1.6,1.9-2.9,1.9h-1.2
		c-1.3,0-2.2-0.6-2.9-1.9l-20.6-37c0.2,1.4,0.2,2.8,0.2,4v43.3h-7v-58.9h5.9c0.7,0,1.3,0.1,1.6,0.2s0.8,0.5,1.1,1.1l20.3,36.3
		c0.3,0.7,0.7,1.3,1,2.1s0.6,1.4,0.9,2.2c0.3-0.7,0.6-1.5,0.9-2.2s0.6-1.4,1-2.1l20-36.2c0.3-0.6,0.7-1,1.1-1.1s1-0.2,1.7-0.2
		L600.7,181.7L600.7,181.7z"/>
	<path class="st0" d="M670.2,211.1c0,4.4-0.7,8.5-2.1,12.1c-1.4,3.7-3.4,6.9-5.9,9.5s-5.6,4.7-9.2,6.2s-7.5,2.2-11.9,2.2
		s-8.3-0.7-11.8-2.2s-6.6-3.5-9.2-6.2s-4.5-5.8-5.9-9.5c-1.4-3.7-2.1-7.7-2.1-12.1s0.7-8.5,2.1-12.1c1.4-3.7,3.4-6.9,5.9-9.5
		s5.6-4.8,9.2-6.2c3.6-1.5,7.5-2.2,11.8-2.2s8.3,0.7,11.9,2.2c3.6,1.5,6.6,3.6,9.2,6.2s4.5,5.9,5.9,9.5
		C669.5,202.7,670.2,206.7,670.2,211.1z M662,211.1c0-3.6-0.5-6.9-1.5-9.7c-1-2.9-2.4-5.3-4.2-7.3s-4-3.5-6.6-4.6s-5.5-1.6-8.6-1.6
		s-6,0.5-8.6,1.6c-2.6,1.1-4.8,2.6-6.6,4.6c-1.8,2-3.2,4.4-4.2,7.3c-1,2.9-1.5,6.1-1.5,9.7s0.5,6.9,1.5,9.7s2.4,5.3,4.2,7.3
		s4,3.5,6.6,4.6c2.6,1.1,5.4,1.6,8.6,1.6s6.1-0.5,8.6-1.6c2.6-1.1,4.8-2.6,6.6-4.6c1.8-2,3.2-4.4,4.2-7.3
		C661.5,218,662,214.8,662,211.1z"/>
	<path class="st0" d="M725.1,240.6H718c-1.5,0-2.5-0.6-3.2-1.7l-15.3-21.1c-0.5-0.7-1-1.1-1.5-1.4c-0.5-0.3-1.4-0.4-2.5-0.4h-6v24.6
		h-7.9v-58.9h16.7c3.7,0,7,0.4,9.7,1.1c2.7,0.8,5,1.8,6.7,3.3c1.8,1.4,3.1,3.1,3.9,5.2c0.8,2,1.3,4.3,1.3,6.8c0,2.1-0.3,4-1,5.8
		s-1.6,3.4-2.9,4.9s-2.8,2.7-4.6,3.7s-3.8,1.8-6.1,2.3c1,0.6,1.9,1.4,2.6,2.5L725.1,240.6L725.1,240.6z M697.9,210.2
		c2.3,0,4.3-0.3,6.1-0.8c1.8-0.6,3.2-1.4,4.4-2.4c1.2-1,2.1-2.2,2.7-3.7c0.6-1.4,0.9-3,0.9-4.7c0-3.5-1.2-6.1-3.5-7.9
		s-5.8-2.7-10.4-2.7h-8.7v22.2L697.9,210.2L697.9,210.2z"/>
	<path class="st0" d="M771,188.4h-19.1v52.2H744v-52.2h-19.1v-6.7H771V188.4L771,188.4z"/>
	<path class="st0" d="M824.9,212.2v22.6c-3,2.1-6.1,3.7-9.5,4.8s-7,1.6-11,1.6c-4.7,0-9-0.7-12.8-2.2s-7.1-3.5-9.8-6.2
		c-2.7-2.6-4.8-5.8-6.2-9.5c-1.5-3.7-2.2-7.8-2.2-12.2s0.7-8.6,2.1-12.3s3.4-6.9,6-9.5c2.6-2.6,5.8-4.7,9.5-6.1
		c3.7-1.4,7.9-2.2,12.5-2.2c2.3,0,4.5,0.2,6.5,0.5s3.8,0.8,5.5,1.5s3.3,1.4,4.7,2.3c1.5,0.9,2.8,1.9,4.1,3.1l-2.3,3.6
		c-0.4,0.6-0.8,0.9-1.4,1.1c-0.6,0.1-1.2,0-1.9-0.4c-0.7-0.4-1.4-0.9-2.3-1.4c-0.8-0.6-1.9-1.1-3.1-1.6c-1.2-0.5-2.7-0.9-4.3-1.3
		c-1.7-0.4-3.6-0.5-5.9-0.5c-3.3,0-6.3,0.5-9,1.6c-2.7,1.1-5,2.6-6.9,4.6c-1.9,2-3.3,4.4-4.4,7.3c-1,2.9-1.5,6.1-1.5,9.6
		s0.5,7,1.6,9.9s2.6,5.4,4.5,7.4c2,2,4.3,3.6,7.1,4.7c2.8,1.1,5.9,1.6,9.4,1.6c2.7,0,5.2-0.3,7.3-0.9c2.1-0.6,4.2-1.5,6.2-2.6v-12.9
		h-9.2c-0.5,0-0.9-0.1-1.2-0.4c-0.3-0.3-0.5-0.7-0.5-1.1v-4.5H824.9L824.9,212.2z"/>
	<path class="st0" d="M884.5,240.6h-6.2c-0.7,0-1.3-0.2-1.7-0.5s-0.8-0.8-1-1.4l-5.5-14.2h-26.4l-5.5,14.2c-0.2,0.5-0.5,0.9-1,1.3
		s-1,0.6-1.7,0.6h-6.2l23.6-58.9h8.1L884.5,240.6L884.5,240.6z M867.9,218.7l-9.2-24c-0.3-0.7-0.6-1.5-0.9-2.5
		c-0.3-0.9-0.6-1.9-0.9-3c-0.6,2.2-1.2,4.1-1.8,5.6l-9.2,23.9L867.9,218.7L867.9,218.7z"/>
	<path class="st0" d="M938.6,212.2v22.6c-3,2.1-6.1,3.7-9.5,4.8s-7,1.6-11,1.6c-4.7,0-9-0.7-12.8-2.2s-7.1-3.5-9.8-6.2
		c-2.7-2.6-4.8-5.8-6.2-9.5c-1.5-3.7-2.2-7.8-2.2-12.2s0.7-8.6,2.1-12.3s3.4-6.9,6-9.5c2.6-2.6,5.8-4.7,9.5-6.1
		c3.7-1.4,7.9-2.2,12.5-2.2c2.3,0,4.5,0.2,6.5,0.5s3.8,0.8,5.5,1.5s3.3,1.4,4.7,2.3c1.5,0.9,2.8,1.9,4.1,3.1l-2.3,3.6
		c-0.4,0.6-0.8,0.9-1.4,1.1c-0.6,0.1-1.2,0-1.9-0.4c-0.7-0.4-1.4-0.9-2.3-1.4c-0.8-0.6-1.9-1.1-3.1-1.6c-1.2-0.5-2.7-0.9-4.3-1.3
		c-1.7-0.4-3.6-0.5-5.9-0.5c-3.3,0-6.3,0.5-9,1.6c-2.7,1.1-5,2.6-6.9,4.6c-1.9,2-3.3,4.4-4.4,7.3c-1,2.9-1.5,6.1-1.5,9.6
		s0.5,7,1.6,9.9s2.6,5.4,4.5,7.4c2,2,4.3,3.6,7.1,4.7c2.8,1.1,5.9,1.6,9.4,1.6c2.7,0,5.2-0.3,7.3-0.9c2.1-0.6,4.2-1.5,6.2-2.6v-12.9
		h-9.2c-0.5,0-0.9-0.1-1.2-0.4c-0.3-0.3-0.5-0.7-0.5-1.1v-4.5H938.6L938.6,212.2z"/>
	<path class="st0" d="M987.2,234.1l0,6.5h-36.3v-58.9h36.3v6.5h-28.3v19.6h22.9v6.2h-22.9v20.1L987.2,234.1L987.2,234.1z"/>
</g>
<g>
	<path class="st1" d="M189.9,178.9c0,0-67.6-147.4-68.4-149.1C110.4,5.6,91.8,5.4,85.9,5.4H4.8l109.9,221.3L189.9,178.9L189.9,178.9
		z"/>
</g>
<g>
	<path class="st1" d="M310.8,5.4c-11.9,0-26.3,0-40,27.4l-60.6,133.3l147.7-93.9l31.5-66.8L310.8,5.4L310.8,5.4z"/>
</g>
<path class="st1" d="M138.1,273.8L138.1,273.8c0.6,1.4,1.3,2.6,1.9,3.8c0.2,0.4,0.4,0.7,0.6,1.1c0.5,0.8,1,1.6,1.5,2.4
	c0.2,0.3,0.4,0.7,0.6,1c0.7,0.9,1.3,1.8,2,2.7c0.3,0.4,0.6,0.7,0.9,1.1c0.4,0.5,0.8,0.9,1.2,1.3c0.4,0.4,0.8,0.8,1.2,1.2
	c0.3,0.3,0.6,0.5,0.9,0.8c1,0.9,2.1,1.8,3.1,2.5l0,0c8.9,6.3,17.8,6.4,21.6,6.4H244L344.9,99.7L122,241.3L138.1,273.8L138.1,273.8z"
	/>
<text transform="matrix(1 0 0 1 581.64 291.48)" class="st0 st2 st3">O</text>
<text transform="matrix(1 0 0 1 606.78 291.48)" class="st0 st2 st3">u</text>
<text transform="matrix(1 0 0 1 624.45 291.48)" class="st0 st2 st3">r</text>
<text transform="matrix(1 0 0 1 635.32 291.48)" class="st0 st2 st3"> Experts.</text>
<text transform="matrix(1 0 0 1 756.15 291.48)" class="st0 st2 st3 st4"> </text>
<text transform="matrix(1 0 0 1 763.03 291.48)" class="st0 st2 st3 st5">Y</text>
<text transform="matrix(1 0 0 1 779.34 291.48)" class="st0 st2 st3">ou</text>
<text transform="matrix(1 0 0 1 814.98 291.48)" class="st0 st2 st3">r</text>
<text transform="matrix(1 0 0 1 825.86 291.48)" class="st0 st2 st3"> </text>
<text transform="matrix(1 0 0 1 832.91 291.48)" class="st0 st2 st3">A</text>
<text transform="matrix(1 0 0 1 854.02 291.48)" class="st0 st2 st3">d</text>
<text transform="matrix(1 0 0 1 871.77 291.48)" class="st0 st2 st3">v</text>
<text transform="matrix(1 0 0 1 887.78 291.48)" class="st0 st2 st3">a</text>
<text transform="matrix(1 0 0 1 903.54 291.48)" class="st0 st2 st3">n</text>
<text transform="matrix(1 0 0 1 921 291.48)" class="st0 st2 st3">ta</text>
<text transform="matrix(1 0 0 1 948.12 291.48)" class="st0 st2 st3">g</text>
<text transform="matrix(1 0 0 1 964.35 291.48)" class="st0 st2 st3">e.</text>
</svg>
